<svg width="24" height="24" viewBox="0 0 24 24" fill="none" xmlns="http://www.w3.org/2000/svg">
<rect width="24" height="24" rx="2" fill="#F8FAFC"/>
<rect x="14" y="4" width="2" height="2" rx="1" fill="#0F172A"/>
<rect x="17" y="4" width="2" height="2" rx="1" fill="#0F172A"/>
<rect x="14" y="7" width="2" height="2" rx="1" fill="#0F172A"/>
<rect x="14" y="10" width="2" height="2" rx="1" fill="#0F172A"/>
<rect x="14" y="13" width="2" height="2" rx="1" fill="#0F172A"/>
<rect x="14" y="16" width="2" height="2" rx="1" fill="#0F172A"/>
<rect x="17" y="7" width="2" height="2" rx="1" fill="#0F172A"/>
<rect x="17" y="10" width="2" height="2" rx="1" fill="#0F172A"/>
<rect x="17" y="13" width="2" height="2" rx="1" fill="#0F172A"/>
<rect x="20" y="7" width="2" height="2" rx="1" fill="#0F172A"/>
<rect x="20" y="10" width="2" height="2" rx="1" fill="#0F172A"/>
<rect x="11" y="7" width="2" height="2" rx="1" fill="#0F172A"/>
<rect x="11" y="10" width="2" height="2" rx="1" fill="#0F172A"/>
<rect x="11" y="13" width="2" height="2" rx="1" fill="#0F172A"/>
<rect x="11" y="16" width="2" height="2" rx="1" fill="#0F172A"/>
<rect x="11" y="19" width="2" height="2" rx="1" fill="#0F172A"/>
<rect x="8" y="4" width="2" height="2" rx="1" fill="#0F172A"/>
<rect x="8" y="7" width="2" height="2" rx="1" fill="#0F172A"/>
<rect x="8" y="10" width="2" height="2" rx="1" fill="#0F172A"/>
<rect x="8" y="13" width="2" height="2" rx="1" fill="#0F172A"/>
<rect x="8" y="16" width="2" height="2" rx="1" fill="#0F172A"/>
<rect x="5" y="4" width="2" height="2" rx="1" fill="#0F172A"/>
<rect x="5" y="7" width="2" height="2" rx="1" fill="#0F172A"/>
<rect x="5" y="10" width="2" height="2" rx="1" fill="#0F172A"/>
<rect x="5" y="13" width="2" height="2" rx="1" fill="#0F172A"/>
<rect x="2" y="7" width="2" height="2" rx="1" fill="#0F172A"/>
<rect x="2" y="10" width="2" height="2" rx="1" fill="#0F172A"/>
</svg>
